HIERARCHY
ROOT Hips
{
	OFFSET 0.000000 0.000000 0.000000
	CHANNELS 6 Xposition Yposition Zposition Zrotation Yrotation Xrotation
	JOINT LHipJoint
	{
		OFFSET 0.000000 0.000000 0.000000
		CHANNELS 3 Zrotation Yrotation Xrotation
		JOINT LeftUpLeg
		{
			OFFSET 1.363060 -1.794630 0.839290
			CHANNELS 3 Zrotation Yrotation Xrotation
			JOINT LeftLeg
			{
				OFFSET 2.448110 -6.726130 0.000000
				CHANNELS 3 Zrotation Yrotation Xrotation
				JOINT LeftFoot
				{
					OFFSET 2.562200 -7.039590 0.000000
					CHANNELS 3 Zrotation Yrotation Xrotation
					JOINT LeftToeBase
					{
						OFFSET 0.157640 -0.433110 2.322550
						CHANNELS 3 Zrotation Yrotation Xrotation
						End Site
						{
							OFFSET 0.000000 0.000000 0.000000
						}
					}
				}
			}
		}
	}
	JOINT RHipJoint
	{
		OFFSET 0.000000 0.000000 0.000000
		CHANNELS 3 Zrotation Yrotation Xrotation
		JOINT RightUpLeg
		{
			OFFSET -1.305520 -1.794630 0.839290
			CHANNELS 3 Zrotation Yrotation Xrotation
			JOINT RightLeg
			{
				OFFSET -2.542530 -6.985550 0.000000
				CHANNELS 3 Zrotation Yrotation Xrotation
				JOINT RightFoot
				{
					OFFSET -2.568260 -7.056230 0.000000
					CHANNELS 3 Zrotation Yrotation Xrotation
					JOINT RightToeBase
					{
						OFFSET -0.164730 -0.452590 2.363150
						CHANNELS 3 Zrotation Yrotation Xrotation
						End Site
						{
							OFFSET 0.000000 0.000000 0.000000
						}
					}
				}
			}
		}
	}
	JOINT LowerBack
	{
		OFFSET 0.000000 0.000000 0.000000
		CHANNELS 3 Zrotation Yrotation Xrotation
		JOINT Spine
		{
			OFFSET 0.028270 2.035590 -0.193380
			CHANNELS 3 Zrotation Yrotation Xrotation
			JOINT Spine1
			{
				OFFSET 0.056720 2.048850 -0.042750
				CHANNELS 3 Zrotation Yrotation Xrotation
				JOINT Neck
				{
					OFFSET 0.000000 0.000000 0.000000
					CHANNELS 3 Zrotation Yrotation Xrotation
					JOINT Neck1
					{
						OFFSET -0.054170 1.746240 0.172020
						CHANNELS 3 Zrotation Yrotation Xrotation
						JOINT Head
						{
							OFFSET 0.104070 1.761360 -0.123970
							CHANNELS 3 Zrotation Yrotation Xrotation
							End Site
							{
								OFFSET 0.000000 0.000000 0.000000
							}
						}
					}
				}
				JOINT LeftShoulder
				{
					OFFSET 0.000000 0.000000 0.000000
					CHANNELS 3 Zrotation Yrotation Xrotation
					JOINT LeftArm
					{
						OFFSET 3.362410 1.200890 -0.311210
						CHANNELS 3 Zrotation Yrotation Xrotation
						JOINT LeftForeArm
						{
							OFFSET 4.983000 -0.000000 -0.000000
							CHANNELS 3 Zrotation Yrotation Xrotation
							JOINT LeftHand
							{
								OFFSET 3.483560 -0.000000 -0.000000
								CHANNELS 3 Zrotation Yrotation Xrotation
								JOINT LeftFingerBase
								{
									OFFSET 0.000000 0.000000 0.000000
									CHANNELS 3 Zrotation Yrotation Xrotation
									JOINT LeftHandIndex1
									{
										OFFSET 0.715260 -0.000000 -0.000000
										CHANNELS 3 Zrotation Yrotation Xrotation
										End Site
										{
											OFFSET 0.000000 0.000000 0.000000
										}
									}
								}
								JOINT LThumb
								{
									OFFSET 0.000000 0.000000 0.000000
									CHANNELS 3 Zrotation Yrotation Xrotation
									End Site
									{
										OFFSET 0.000000 0.000000 0.000000
									}
								}
							}
						}
					}
				}
				JOINT RightShoulder
				{
					OFFSET 0.000000 0.000000 0.000000
					CHANNELS 3 Zrotation Yrotation Xrotation
					JOINT RightArm
					{
						OFFSET -3.136600 1.374050 -0.404650
						CHANNELS 3 Zrotation Yrotation Xrotation
						JOINT RightForeArm
						{
							OFFSET -5.241900 -0.000000 -0.000000
							CHANNELS 3 Zrotation Yrotation Xrotation
							JOINT RightHand
							{
								OFFSET -3.444170 -0.000000 -0.000000
								CHANNELS 3 Zrotation Yrotation Xrotation
								JOINT RightFingerBase
								{
									OFFSET 0.000000 0.000000 0.000000
									CHANNELS 3 Zrotation Yrotation Xrotation
									JOINT RightHandIndex1
									{
										OFFSET -0.622530 -0.000000 -0.000000
										CHANNELS 3 Zrotation Yrotation Xrotation
										End Site
										{
											OFFSET 0.000000 0.000000 0.000000
										}
									}
								}
								JOINT RThumb
								{
									OFFSET 0.000000 0.000000 0.000000
									CHANNELS 3 Zrotation Yrotation Xrotation
									End Site
									{
										OFFSET 0.000000 0.000000 0.000000
									}
								}
							}
						}
					}
				}
			}
		}
	}
}
MOTION
Frames: 10
Frame Time: 0.008333
-4.343368 -5.938242 37.473370 1.817238 6.287692 -4.853761 -5.621238 5.780627 -0.253679 -18.608822 11.019576 51.743889 -9.939508 4.032122 -16.862921 -0.963187 -10.376903 -6.623268 -2.556114 19.925577 -34.428017 -7.334419 0.398854 -4.681891 17.479170 -0.987602 -9.919456 -4.069620 -1.884673 -1.463862 6.277204 -9.578121 -28.355251 5.347319 0.028986 -27.263214 -4.203671 1.005446 -0.747665 -2.062757 -1.583923 -4.149966 2.877455 -0.074354 -4.308129 -0.986490 -0.670068 -6.185745 0.037930 -7.265252 1.622252 1.893051 -3.143064 -3.297075 -6.475056 -4.134174 -0.354611 11.094341 -42.331318 19.657429 6.582084 -1.901495 -12.756778 -0.463432 1.003263 -23.959614 -4.121937 23.005915 -3.457689 -0.202023 0.000000 0.000000 45.615547 -11.747790 4.098306 -4.302123 4.785539 0.297820 87.182747 -8.039939 3.024161 7.124046 -25.872229 4.536210 -1.044899 -1.012725 68.981667 -48.669201 -55.943581 74.770729 -2.417046 0.000000 0.000000 26.838022 17.886574 -45.102867
-4.340719 -5.934848 37.536758 1.793939 6.399722 -4.810986 -5.643973 5.802371 -0.214810 -18.601145 11.007876 52.260826 -10.011701 3.954588 -17.149195 -0.979041 -10.361279 -6.636935 -2.535943 19.821545 -34.777191 -7.294893 0.381843 -4.717374 17.822973 -1.055927 -9.954044 -3.931939 -1.788717 -1.871141 6.284448 -9.340659 -28.724901 5.288987 0.029496 -27.011005 -4.302323 0.984245 -0.530859 -2.039572 -1.631651 -4.167475 2.986301 -0.124274 -4.209941 -0.762023 -0.739808 -6.217876 0.114898 -7.198127 1.653674 1.974004 -3.121987 -3.278356 -6.427417 -4.161006 -0.367443 11.818898 -42.699245 19.733189 6.957629 -2.129446 -12.872318 -0.457164 1.030246 -23.810249 -4.062754 23.285692 -3.578317 -0.218151 0.000000 0.000000 45.631226 -11.924544 4.364134 -4.320429 4.769118 0.299240 87.402008 -7.916801 2.667734 7.175072 -26.134493 4.583811 -1.059793 -1.018554 69.353958 -49.375629 -56.261688 75.156143 -2.425381 0.000000 0.000000 26.564487 17.847401 -45.553883
-4.340175 -5.934599 37.586971 1.771332 6.513011 -4.765674 -5.666944 5.822108 -0.178344 -18.598753 10.990341 52.784164 -10.083767 3.879039 -17.428133 -0.992746 -10.331062 -6.634331 -2.512532 19.716753 -35.126789 -7.251509 0.365489 -4.747553 18.178900 -1.119125 -9.968137 -3.794500 -1.688897 -2.266906 6.291599 -9.118646 -29.128897 5.237249 0.013801 -26.749077 -4.418180 0.947203 -0.339266 -2.021864 -1.698530 -4.230201 3.081113 -0.185360 -4.166913 -0.578948 -0.831382 -6.302947 0.166553 -7.175227 1.623582 2.011420 -3.120261 -3.305027 -6.433368 -4.218347 -0.384999 12.416635 -43.119164 19.642557 7.315275 -2.394409 -13.002643 -0.455341 1.050031 -23.713890 -4.027716 23.556089 -3.701581 -0.235275 0.000000 0.000000 45.633358 -12.129607 4.613925 -4.340504 4.750849 0.299783 87.606110 -7.792977 2.310910 7.225389 -26.392221 4.633200 -1.074682 -1.024065 69.729385 -50.061275 -56.572857 75.557137 -2.433193 0.000000 0.000000 26.306736 17.814341 -45.981735
-4.337993 -5.931206 37.651451 1.751487 6.630577 -4.714586 -5.685394 5.844197 -0.139377 -18.590530 10.977131 53.317558 -10.154878 3.806159 -17.705175 -1.005790 -10.296610 -6.632131 -2.488506 19.610897 -35.482967 -7.208793 0.348318 -4.777863 18.533607 -1.183648 -9.981130 -3.658327 -1.589311 -2.668554 6.295047 -8.927488 -29.552393 5.184081 -0.031356 -26.531385 -4.544337 0.904984 -0.154029 -2.006463 -1.772929 -4.315676 3.174168 -0.251268 -4.142925 -0.406280 -0.927032 -6.402364 0.212250 -7.154768 1.592384 2.047810 -3.118499 -3.331882 -6.438886 -4.269911 -0.401635 13.049120 -43.530582 19.601980 7.688375 -2.652617 -13.133771 -0.452792 1.070345 -23.604319 -3.983428 23.833357 -3.822354 -0.251948 0.000000 0.000000 45.645565 -12.328286 4.874428 -4.359592 4.733043 0.300556 87.809944 -7.667782 1.957315 7.276271 -26.644478 4.683452 -1.089678 -1.029385 70.106544 -50.727634 -56.876320 75.973206 -2.440511 0.000000 0.000000 26.078604 17.798189 -46.371288
-4.341136 -5.931276 37.706314 1.722018 6.736057 -4.669501 -5.712647 5.864601 -0.103555 -18.589743 10.958931 53.871918 -10.229376 3.719464 -18.021883 -1.028386 -10.286120 -6.678533 -2.471409 19.491781 -35.866432 -7.188162 0.322158 -4.824169 18.836754 -1.276466 -10.029324 -3.540884 -1.501997 -3.078656 6.294330 -8.776128 -30.007818 5.141236 -0.098014 -26.430328 -4.716928 0.852666 0.010337 -1.990026 -1.843312 -4.425844 3.272581 -0.316716 -4.120389 -0.270210 -1.045507 -6.534428 0.236724 -7.170390 1.514806 2.060862 -3.128118 -3.384453 -6.472437 -4.330174 -0.422243 13.562800 -43.981575 19.485794 8.098262 -2.878368 -13.262630 -0.451104 1.088578 -23.472336 -3.923017 24.133759 -3.942887 -0.266405 0.000000 0.000000 45.692062 -12.509453 5.158566 -4.373322 4.715029 0.300728 87.997063 -7.544199 1.591323 7.316328 -26.896681 4.732170 -1.104838 -1.035057 70.478745 -51.401119 -57.195961 76.371429 -2.448076 0.000000 0.000000 25.804796 17.741859 -46.761292
-4.341975 -5.930637 37.774261 1.688266 6.834715 -4.626506 -5.743819 5.884554 -0.067711 -18.587391 10.942797 54.455772 -10.304408 3.632462 -18.346844 -1.051084 -10.260782 -6.699003 -2.448756 19.390234 -36.157402 -7.129825 0.309161 -4.843400 19.208559 -1.331003 -10.007690 -3.419165 -1.395524 -3.407636 6.311107 -8.526684 -30.304152 5.119040 -0.145804 -26.141405 -4.795711 0.822510 0.241093 -1.955274 -1.889873 -4.502187 3.407847 -0.363544 -4.059743 -0.078432 -1.119861 -6.565227 0.302781 -7.116071 1.544324 2.126284 -3.107619 -3.379099 -6.441494 -4.338872 -0.428954 14.389146 -44.315758 19.476799 8.472804 -3.093664 -13.392193 -0.450840 1.106720 -23.337254 -3.859130 24.430937 -4.066366 -0.282153 0.000000 0.000000 45.720333 -12.701285 5.436365 -4.385635 4.696962 0.301811 88.190308 -7.412542 1.216640 7.359045 -27.137966 4.780262 -1.118948 -1.039687 70.857841 -52.014046 -57.511738 76.812202 -2.454262 0.000000 0.000000 25.613028 17.723257 -46.997196
-4.343733 -5.936397 37.820549 1.653042 6.936568 -4.575400 -5.774614 5.904308 -0.031674 -18.588606 10.925080 55.045834 -10.384473 3.530292 -18.714027 -1.075791 -10.221259 -6.697546 -2.420240 19.280630 -36.505505 -7.093069 0.287991 -4.870330 19.545614 -1.402185 -10.005749 -3.311265 -1.298983 -3.742966 6.323933 -8.354529 -30.716400 5.093951 -0.244455 -25.802675 -4.879415 0.785573 0.448677 -1.926400 -1.943728 -4.615743 3.542982 -0.410440 -4.029586 0.085674 -1.200556 -6.610080 0.356003 -7.083017 1.545819 2.174218 -3.092651 -3.393058 -6.429793 -4.359610 -0.439077 15.068297 -44.699333 19.146667 8.818995 -3.284445 -13.520791 -0.451637 1.123078 -23.238358 -3.809810 24.710129 -4.189811 -0.298177 0.000000 0.000000 45.725777 -12.926575 5.688668 -4.401478 4.673221 0.301204 88.350487 -7.278295 0.838010 7.402461 -27.366667 4.818104 -1.134607 -1.045627 71.221565 -52.684212 -57.862034 77.216591 -2.461285 0.000000 0.000000 25.361721 17.656120 -47.245609
-4.344798 -5.939465 37.881603 1.620479 7.042756 -4.518321 -5.803012 5.926549 0.007494 -18.584236 10.913850 55.646385 -10.463566 3.431562 -19.080532 -1.098239 -10.169868 -6.682834 -2.388075 19.173719 -36.841259 -7.050848 0.268067 -4.893980 19.891819 -1.467905 -9.995539 -3.202860 -1.199648 -4.071996 6.336133 -8.204207 -31.136917 5.067237 -0.374023 -25.527975 -4.974736 0.740474 0.616498 -1.906464 -2.010394 -4.757166 3.673933 -0.462296 -4.028318 0.237824 -1.282452 -6.686571 0.396537 -7.070296 1.520713 2.206787 -3.086805 -3.425085 -6.438301 -4.395517 -0.453483 15.693656 -45.098171 18.807238 9.167585 -3.479388 -13.651791 -0.452837 1.137292 -23.140745 -3.759543 24.989357 -4.311328 -0.313683 0.000000 0.000000 45.742203 -13.142770 5.951775 -4.416226 4.650204 0.300901 88.508789 -7.141801 0.463744 7.448088 -27.585003 4.856943 -1.150344 -1.051501 71.582474 -53.344673 -58.208015 77.631516 -2.467893 0.000000 0.000000 25.136427 17.597708 -47.462894
-4.363954 -5.966771 37.857635 1.567605 7.107472 -4.499790 -5.870217 5.933159 0.032760 -18.630333 10.866612 56.212688 -10.553851 3.300090 -19.543814 -1.130270 -10.145597 -6.705733 -2.360902 19.040642 -37.197857 -7.025824 0.240467 -4.932884 20.182283 -1.557620 -10.019423 -3.111548 -1.112752 -4.403771 6.344760 -8.091356 -31.580057 5.046616 -0.524138 -25.308384 -5.074629 0.694984 0.772453 -1.895596 -2.090884 -4.926842 3.802444 -0.512934 -4.038794 0.361204 -1.381851 -6.800655 0.420433 -7.093463 1.450225 2.219185 -3.090913 -3.479007 -6.468227 -4.444965 -0.474255 16.160084 -45.541328 18.374378 9.518669 -3.670827 -13.784683 -0.457907 1.143697 -23.080284 -3.727706 25.254255 -4.448100 -0.329282 0.000000 0.000000 45.724648 -13.410411 6.175251 -4.437834 4.619943 0.298476 88.626427 -7.015639 0.061175 7.468163 -27.815992 4.878814 -1.167699 -1.059073 71.922417 -54.104156 -58.608154 77.971306 -2.476357 0.000000 0.000000 24.789185 17.452274 -47.772125
-4.383304 -5.988402 37.862541 1.520543 7.183949 -4.471359 -5.932651 5.945405 0.066391 -18.659437 10.835688 56.828968 -10.634604 3.177044 -19.999012 -1.154096 -10.091175 -6.698125 -2.326696 18.898773 -37.564880 -6.987236 0.216678 -4.960870 20.487803 -1.631800 -10.017652 -3.022531 -1.028238 -4.711646 6.357768 -7.959282 -31.917484 5.041680 -0.657208 -24.926342 -5.126916 0.666342 0.968213 -1.874284 -2.138045 -5.078632 3.946293 -0.554749 -4.040753 0.501031 -1.464636 -6.860484 0.459007 -7.087929 1.423535 2.249001 -3.082663 -3.511996 -6.471303 -4.475305 -0.490041 16.771786 -45.916489 17.963076 9.834561 -3.850386 -13.914232 -0.463836 1.151622 -23.019247 -3.695620 25.532667 -4.574964 -0.343844 0.000000 0.000000 45.710464 -13.642203 6.435431 -4.454356 4.590474 0.297486 88.757767 -6.874959 -0.335373 7.502779 -28.024334 4.905811 -1.183145 -1.064911 72.272026 -54.755459 -58.979008 78.393852 -2.482383 0.000000 0.000000 24.549074 17.359398 -47.912487
